<mxfile host="www.draw.io" modified="2020-05-06T17:32:21.401Z" agent="5.0 (Windows NT 10.0; Win64; x64) AppleWebKit/537.36 (KHTML, like Gecko) Chrome/81.0.4044.129 Safari/537.36" etag="vAhG3g-GJY8Ke7nH5QIS" version="13.0.8" type="github">
  <diagram id="DCVB9SR3XlLN0tayjeIG" name="Page-1">
    <mxGraphModel dx="296" dy="1602" grid="1" gridSize="10" guides="1" tooltips="1" connect="1" arrows="1" fold="1" page="1" pageScale="1" pageWidth="850" pageHeight="1100" math="0" shadow="0">
      <root>
        <mxCell id="0" />
        <mxCell id="1" parent="0" />
        <mxCell id="M4JOrnr842kj9lPQ-EHg-1" value="FA1" style="rounded=0;whiteSpace=wrap;html=1;fontSize=20;" parent="1" vertex="1">
          <mxGeometry x="1200" y="80" width="120" height="60" as="geometry" />
        </mxCell>
        <mxCell id="M4JOrnr842kj9lPQ-EHg-2" value="" style="endArrow=none;html=1;exitX=0.75;exitY=0;exitDx=0;exitDy=0;" parent="1" source="M4JOrnr842kj9lPQ-EHg-1" edge="1">
          <mxGeometry width="50" height="50" relative="1" as="geometry">
            <mxPoint x="1320" y="50" as="sourcePoint" />
            <mxPoint x="1290" as="targetPoint" />
          </mxGeometry>
        </mxCell>
        <mxCell id="M4JOrnr842kj9lPQ-EHg-22" value="8" style="edgeLabel;html=1;align=center;verticalAlign=middle;resizable=0;points=[];" parent="M4JOrnr842kj9lPQ-EHg-2" vertex="1" connectable="0">
          <mxGeometry x="0.2226" y="-1" relative="1" as="geometry">
            <mxPoint x="-1" y="8.84" as="offset" />
          </mxGeometry>
        </mxCell>
        <mxCell id="M4JOrnr842kj9lPQ-EHg-3" value="" style="endArrow=none;html=1;exitX=0.5;exitY=0;exitDx=0;exitDy=0;" parent="1" source="M4JOrnr842kj9lPQ-EHg-1" edge="1">
          <mxGeometry width="50" height="50" relative="1" as="geometry">
            <mxPoint x="1300" y="20" as="sourcePoint" />
            <mxPoint x="1260" as="targetPoint" />
          </mxGeometry>
        </mxCell>
        <mxCell id="M4JOrnr842kj9lPQ-EHg-23" value="8" style="edgeLabel;html=1;align=center;verticalAlign=middle;resizable=0;points=[];" parent="M4JOrnr842kj9lPQ-EHg-3" vertex="1" connectable="0">
          <mxGeometry x="0.2107" y="1" relative="1" as="geometry">
            <mxPoint x="1" y="8.37" as="offset" />
          </mxGeometry>
        </mxCell>
        <mxCell id="M4JOrnr842kj9lPQ-EHg-4" value="" style="endArrow=none;html=1;exitX=0.25;exitY=0;exitDx=0;exitDy=0;" parent="1" source="M4JOrnr842kj9lPQ-EHg-1" edge="1">
          <mxGeometry width="50" height="50" relative="1" as="geometry">
            <mxPoint x="1280" y="240" as="sourcePoint" />
            <mxPoint x="1230" as="targetPoint" />
          </mxGeometry>
        </mxCell>
        <mxCell id="M4JOrnr842kj9lPQ-EHg-24" value="8" style="edgeLabel;html=1;align=center;verticalAlign=middle;resizable=0;points=[];" parent="M4JOrnr842kj9lPQ-EHg-4" vertex="1" connectable="0">
          <mxGeometry x="0.1959" relative="1" as="geometry">
            <mxPoint y="7.91" as="offset" />
          </mxGeometry>
        </mxCell>
        <mxCell id="M4JOrnr842kj9lPQ-EHg-5" value="FA2" style="rounded=0;whiteSpace=wrap;html=1;fontSize=20;" parent="1" vertex="1">
          <mxGeometry x="1200" y="240" width="120" height="60" as="geometry" />
        </mxCell>
        <mxCell id="M4JOrnr842kj9lPQ-EHg-6" value="FA3" style="rounded=0;whiteSpace=wrap;html=1;fontSize=20;" parent="1" vertex="1">
          <mxGeometry x="1200" y="400" width="120" height="60" as="geometry" />
        </mxCell>
        <mxCell id="M4JOrnr842kj9lPQ-EHg-7" value="FA4" style="rounded=0;whiteSpace=wrap;html=1;fontSize=20;" parent="1" vertex="1">
          <mxGeometry x="1200" y="560" width="120" height="60" as="geometry" />
        </mxCell>
        <mxCell id="M4JOrnr842kj9lPQ-EHg-8" value="" style="endArrow=none;html=1;exitX=0.75;exitY=0;exitDx=0;exitDy=0;entryX=0.75;entryY=1;entryDx=0;entryDy=0;" parent="1" source="M4JOrnr842kj9lPQ-EHg-5" target="M4JOrnr842kj9lPQ-EHg-1" edge="1">
          <mxGeometry width="50" height="50" relative="1" as="geometry">
            <mxPoint x="1410" y="250" as="sourcePoint" />
            <mxPoint x="1460" y="200" as="targetPoint" />
          </mxGeometry>
        </mxCell>
        <mxCell id="M4JOrnr842kj9lPQ-EHg-32" value="8" style="edgeLabel;html=1;align=center;verticalAlign=middle;resizable=0;points=[];" parent="M4JOrnr842kj9lPQ-EHg-8" vertex="1" connectable="0">
          <mxGeometry x="0.692" relative="1" as="geometry">
            <mxPoint y="4.8" as="offset" />
          </mxGeometry>
        </mxCell>
        <mxCell id="M4JOrnr842kj9lPQ-EHg-9" value="" style="endArrow=none;html=1;exitX=0.75;exitY=0;exitDx=0;exitDy=0;entryX=0.75;entryY=1;entryDx=0;entryDy=0;" parent="1" edge="1">
          <mxGeometry width="50" height="50" relative="1" as="geometry">
            <mxPoint x="1290" y="400" as="sourcePoint" />
            <mxPoint x="1290" y="300" as="targetPoint" />
          </mxGeometry>
        </mxCell>
        <mxCell id="M4JOrnr842kj9lPQ-EHg-36" value="9" style="edgeLabel;html=1;align=center;verticalAlign=middle;resizable=0;points=[];" parent="M4JOrnr842kj9lPQ-EHg-9" vertex="1" connectable="0">
          <mxGeometry x="0.676" y="-1" relative="1" as="geometry">
            <mxPoint as="offset" />
          </mxGeometry>
        </mxCell>
        <mxCell id="M4JOrnr842kj9lPQ-EHg-10" value="" style="endArrow=none;html=1;exitX=0.75;exitY=0;exitDx=0;exitDy=0;entryX=0.75;entryY=1;entryDx=0;entryDy=0;" parent="1" edge="1">
          <mxGeometry width="50" height="50" relative="1" as="geometry">
            <mxPoint x="1290" y="560" as="sourcePoint" />
            <mxPoint x="1290" y="460" as="targetPoint" />
          </mxGeometry>
        </mxCell>
        <mxCell id="M4JOrnr842kj9lPQ-EHg-40" value="10" style="edgeLabel;html=1;align=center;verticalAlign=middle;resizable=0;points=[];" parent="M4JOrnr842kj9lPQ-EHg-10" vertex="1" connectable="0">
          <mxGeometry x="0.644" y="-1" relative="1" as="geometry">
            <mxPoint as="offset" />
          </mxGeometry>
        </mxCell>
        <mxCell id="M4JOrnr842kj9lPQ-EHg-11" value="" style="endArrow=none;html=1;exitX=0.25;exitY=0;exitDx=0;exitDy=0;" parent="1" source="M4JOrnr842kj9lPQ-EHg-5" edge="1">
          <mxGeometry width="50" height="50" relative="1" as="geometry">
            <mxPoint x="1130" y="80" as="sourcePoint" />
            <mxPoint x="1140" as="targetPoint" />
            <Array as="points">
              <mxPoint x="1230" y="200" />
              <mxPoint x="1140" y="80" />
            </Array>
          </mxGeometry>
        </mxCell>
        <mxCell id="M4JOrnr842kj9lPQ-EHg-25" value="8" style="edgeLabel;html=1;align=center;verticalAlign=middle;resizable=0;points=[];" parent="M4JOrnr842kj9lPQ-EHg-11" vertex="1" connectable="0">
          <mxGeometry x="0.7704" y="1" relative="1" as="geometry">
            <mxPoint x="1" y="9.07" as="offset" />
          </mxGeometry>
        </mxCell>
        <mxCell id="M4JOrnr842kj9lPQ-EHg-12" value="" style="endArrow=none;html=1;exitX=0.25;exitY=0;exitDx=0;exitDy=0;" parent="1" source="M4JOrnr842kj9lPQ-EHg-6" edge="1">
          <mxGeometry width="50" height="50" relative="1" as="geometry">
            <mxPoint x="1100" y="80" as="sourcePoint" />
            <mxPoint x="1110" as="targetPoint" />
            <Array as="points">
              <mxPoint x="1230" y="360" />
              <mxPoint x="1110" y="240" />
            </Array>
          </mxGeometry>
        </mxCell>
        <mxCell id="M4JOrnr842kj9lPQ-EHg-26" value="8" style="edgeLabel;html=1;align=center;verticalAlign=middle;resizable=0;points=[];" parent="M4JOrnr842kj9lPQ-EHg-12" vertex="1" connectable="0">
          <mxGeometry x="0.8601" relative="1" as="geometry">
            <mxPoint y="8.43" as="offset" />
          </mxGeometry>
        </mxCell>
        <mxCell id="M4JOrnr842kj9lPQ-EHg-13" value="" style="endArrow=none;html=1;exitX=0.25;exitY=0;exitDx=0;exitDy=0;" parent="1" source="M4JOrnr842kj9lPQ-EHg-7" edge="1">
          <mxGeometry width="50" height="50" relative="1" as="geometry">
            <mxPoint x="1070" y="80" as="sourcePoint" />
            <mxPoint x="1080" as="targetPoint" />
            <Array as="points">
              <mxPoint x="1230" y="520" />
              <mxPoint x="1080" y="400" />
            </Array>
          </mxGeometry>
        </mxCell>
        <mxCell id="M4JOrnr842kj9lPQ-EHg-27" value="8" style="edgeLabel;html=1;align=center;verticalAlign=middle;resizable=0;points=[];" parent="M4JOrnr842kj9lPQ-EHg-13" vertex="1" connectable="0">
          <mxGeometry x="0.9063" y="1" relative="1" as="geometry">
            <mxPoint x="1" y="10.46" as="offset" />
          </mxGeometry>
        </mxCell>
        <mxCell id="M4JOrnr842kj9lPQ-EHg-14" style="edgeStyle=orthogonalEdgeStyle;rounded=0;orthogonalLoop=1;jettySize=auto;html=1;exitX=0.75;exitY=1;exitDx=0;exitDy=0;" parent="1" edge="1">
          <mxGeometry relative="1" as="geometry">
            <mxPoint x="1290" y="720" as="targetPoint" />
            <mxPoint x="1290" y="620" as="sourcePoint" />
          </mxGeometry>
        </mxCell>
        <mxCell id="M4JOrnr842kj9lPQ-EHg-44" value="11" style="edgeLabel;html=1;align=center;verticalAlign=middle;resizable=0;points=[];" parent="M4JOrnr842kj9lPQ-EHg-14" vertex="1" connectable="0">
          <mxGeometry x="0.18" y="-1" relative="1" as="geometry">
            <mxPoint as="offset" />
          </mxGeometry>
        </mxCell>
        <mxCell id="M4JOrnr842kj9lPQ-EHg-15" style="edgeStyle=orthogonalEdgeStyle;rounded=0;orthogonalLoop=1;jettySize=auto;html=1;exitX=0.75;exitY=1;exitDx=0;exitDy=0;" parent="1" edge="1">
          <mxGeometry relative="1" as="geometry">
            <mxPoint x="1259.8" y="720" as="targetPoint" />
            <mxPoint x="1259.8" y="620" as="sourcePoint" />
          </mxGeometry>
        </mxCell>
        <mxCell id="M4JOrnr842kj9lPQ-EHg-45" value="11" style="edgeLabel;html=1;align=center;verticalAlign=middle;resizable=0;points=[];" parent="M4JOrnr842kj9lPQ-EHg-15" vertex="1" connectable="0">
          <mxGeometry x="0.148" relative="1" as="geometry">
            <mxPoint as="offset" />
          </mxGeometry>
        </mxCell>
        <mxCell id="M4JOrnr842kj9lPQ-EHg-16" value="x(3)" style="text;html=1;align=center;verticalAlign=middle;resizable=0;points=[];autosize=1;" parent="1" vertex="1">
          <mxGeometry x="1210" y="-20" width="40" height="20" as="geometry" />
        </mxCell>
        <mxCell id="M4JOrnr842kj9lPQ-EHg-17" value="x(2)" style="text;html=1;align=center;verticalAlign=middle;resizable=0;points=[];autosize=1;" parent="1" vertex="1">
          <mxGeometry x="1240" y="-20" width="40" height="20" as="geometry" />
        </mxCell>
        <mxCell id="M4JOrnr842kj9lPQ-EHg-18" value="x(1)" style="text;html=1;align=center;verticalAlign=middle;resizable=0;points=[];autosize=1;" parent="1" vertex="1">
          <mxGeometry x="1270" y="-20" width="40" height="20" as="geometry" />
        </mxCell>
        <mxCell id="M4JOrnr842kj9lPQ-EHg-19" value="x(4)" style="text;html=1;align=center;verticalAlign=middle;resizable=0;points=[];autosize=1;" parent="1" vertex="1">
          <mxGeometry x="1120" y="-20" width="40" height="20" as="geometry" />
        </mxCell>
        <mxCell id="M4JOrnr842kj9lPQ-EHg-20" value="x(5)" style="text;html=1;align=center;verticalAlign=middle;resizable=0;points=[];autosize=1;" parent="1" vertex="1">
          <mxGeometry x="1090" y="-20" width="40" height="20" as="geometry" />
        </mxCell>
        <mxCell id="M4JOrnr842kj9lPQ-EHg-21" value="x(6)" style="text;html=1;align=center;verticalAlign=middle;resizable=0;points=[];autosize=1;" parent="1" vertex="1">
          <mxGeometry x="1060" y="-20" width="40" height="20" as="geometry" />
        </mxCell>
        <mxCell id="M4JOrnr842kj9lPQ-EHg-28" value="" style="endArrow=none;html=1;exitX=0.75;exitY=0;exitDx=0;exitDy=0;entryX=0.75;entryY=1;entryDx=0;entryDy=0;" parent="1" edge="1">
          <mxGeometry width="50" height="50" relative="1" as="geometry">
            <mxPoint x="1259.8" y="240" as="sourcePoint" />
            <mxPoint x="1259.8" y="140" as="targetPoint" />
          </mxGeometry>
        </mxCell>
        <mxCell id="M4JOrnr842kj9lPQ-EHg-33" value="9" style="edgeLabel;html=1;align=center;verticalAlign=middle;resizable=0;points=[];" parent="M4JOrnr842kj9lPQ-EHg-28" vertex="1" connectable="0">
          <mxGeometry x="0.668" relative="1" as="geometry">
            <mxPoint x="0.2" y="3.6" as="offset" />
          </mxGeometry>
        </mxCell>
        <mxCell id="M4JOrnr842kj9lPQ-EHg-29" value="" style="endArrow=none;html=1;exitX=0.75;exitY=0;exitDx=0;exitDy=0;entryX=0.75;entryY=1;entryDx=0;entryDy=0;" parent="1" edge="1">
          <mxGeometry width="50" height="50" relative="1" as="geometry">
            <mxPoint x="1259.8" y="400" as="sourcePoint" />
            <mxPoint x="1259.8" y="300" as="targetPoint" />
          </mxGeometry>
        </mxCell>
        <mxCell id="M4JOrnr842kj9lPQ-EHg-37" value="10" style="edgeLabel;html=1;align=center;verticalAlign=middle;resizable=0;points=[];" parent="M4JOrnr842kj9lPQ-EHg-29" vertex="1" connectable="0">
          <mxGeometry x="0.676" y="1" relative="1" as="geometry">
            <mxPoint as="offset" />
          </mxGeometry>
        </mxCell>
        <mxCell id="M4JOrnr842kj9lPQ-EHg-30" value="" style="endArrow=none;html=1;exitX=0.75;exitY=0;exitDx=0;exitDy=0;entryX=0.75;entryY=1;entryDx=0;entryDy=0;" parent="1" edge="1">
          <mxGeometry width="50" height="50" relative="1" as="geometry">
            <mxPoint x="1259.8" y="560" as="sourcePoint" />
            <mxPoint x="1259.8" y="460" as="targetPoint" />
          </mxGeometry>
        </mxCell>
        <mxCell id="M4JOrnr842kj9lPQ-EHg-41" value="11" style="edgeLabel;html=1;align=center;verticalAlign=middle;resizable=0;points=[];" parent="M4JOrnr842kj9lPQ-EHg-30" vertex="1" connectable="0">
          <mxGeometry x="0.628" relative="1" as="geometry">
            <mxPoint as="offset" />
          </mxGeometry>
        </mxCell>
        <mxCell id="M4JOrnr842kj9lPQ-EHg-34" value="" style="endArrow=none;dashed=1;html=1;" parent="1" edge="1">
          <mxGeometry width="50" height="50" relative="1" as="geometry">
            <mxPoint x="1200" y="200" as="sourcePoint" />
            <mxPoint x="1370" y="200" as="targetPoint" />
          </mxGeometry>
        </mxCell>
        <mxCell id="M4JOrnr842kj9lPQ-EHg-35" value="extend to 9 bit" style="text;html=1;align=center;verticalAlign=middle;resizable=0;points=[];autosize=1;" parent="1" vertex="1">
          <mxGeometry x="1290" y="200" width="90" height="20" as="geometry" />
        </mxCell>
        <mxCell id="M4JOrnr842kj9lPQ-EHg-38" value="" style="endArrow=none;dashed=1;html=1;" parent="1" edge="1">
          <mxGeometry width="50" height="50" relative="1" as="geometry">
            <mxPoint x="1200" y="360" as="sourcePoint" />
            <mxPoint x="1370" y="360" as="targetPoint" />
          </mxGeometry>
        </mxCell>
        <mxCell id="M4JOrnr842kj9lPQ-EHg-39" value="extend to 10 bit" style="text;html=1;align=center;verticalAlign=middle;resizable=0;points=[];autosize=1;" parent="1" vertex="1">
          <mxGeometry x="1285" y="360" width="100" height="20" as="geometry" />
        </mxCell>
        <mxCell id="M4JOrnr842kj9lPQ-EHg-42" value="" style="endArrow=none;dashed=1;html=1;" parent="1" edge="1">
          <mxGeometry width="50" height="50" relative="1" as="geometry">
            <mxPoint x="1200" y="520" as="sourcePoint" />
            <mxPoint x="1370" y="520" as="targetPoint" />
          </mxGeometry>
        </mxCell>
        <mxCell id="M4JOrnr842kj9lPQ-EHg-43" value="extend to 11 bit" style="text;html=1;align=center;verticalAlign=middle;resizable=0;points=[];autosize=1;" parent="1" vertex="1">
          <mxGeometry x="1285" y="520" width="100" height="20" as="geometry" />
        </mxCell>
        <mxCell id="M4JOrnr842kj9lPQ-EHg-46" value="carry out&lt;br&gt;with out 1 bit extend" style="ellipse;shape=cloud;whiteSpace=wrap;html=1;" parent="1" vertex="1">
          <mxGeometry x="1120" y="610" width="90" height="60" as="geometry" />
        </mxCell>
        <mxCell id="M4JOrnr842kj9lPQ-EHg-48" value="" style="endArrow=classic;html=1;" parent="1" edge="1">
          <mxGeometry width="50" height="50" relative="1" as="geometry">
            <mxPoint x="1250" y="680" as="sourcePoint" />
            <mxPoint x="1190" y="660" as="targetPoint" />
            <Array as="points">
              <mxPoint x="1210" y="680" />
            </Array>
          </mxGeometry>
        </mxCell>
        <mxCell id="YjTK8mHUQti5EuOpvLz2-1" value="FA1" style="rounded=0;whiteSpace=wrap;html=1;fontSize=20;" vertex="1" parent="1">
          <mxGeometry x="1710" y="80" width="120" height="60" as="geometry" />
        </mxCell>
        <mxCell id="YjTK8mHUQti5EuOpvLz2-2" value="" style="endArrow=none;html=1;exitX=0.75;exitY=0;exitDx=0;exitDy=0;" edge="1" source="YjTK8mHUQti5EuOpvLz2-1" parent="1">
          <mxGeometry width="50" height="50" relative="1" as="geometry">
            <mxPoint x="1830" y="50" as="sourcePoint" />
            <mxPoint x="1800" as="targetPoint" />
          </mxGeometry>
        </mxCell>
        <mxCell id="YjTK8mHUQti5EuOpvLz2-3" value="8" style="edgeLabel;html=1;align=center;verticalAlign=middle;resizable=0;points=[];" vertex="1" connectable="0" parent="YjTK8mHUQti5EuOpvLz2-2">
          <mxGeometry x="0.2226" y="-1" relative="1" as="geometry">
            <mxPoint x="-1" y="8.84" as="offset" />
          </mxGeometry>
        </mxCell>
        <mxCell id="YjTK8mHUQti5EuOpvLz2-4" value="" style="endArrow=none;html=1;exitX=0.5;exitY=0;exitDx=0;exitDy=0;" edge="1" source="YjTK8mHUQti5EuOpvLz2-1" parent="1">
          <mxGeometry width="50" height="50" relative="1" as="geometry">
            <mxPoint x="1810" y="20" as="sourcePoint" />
            <mxPoint x="1770" as="targetPoint" />
          </mxGeometry>
        </mxCell>
        <mxCell id="YjTK8mHUQti5EuOpvLz2-5" value="8" style="edgeLabel;html=1;align=center;verticalAlign=middle;resizable=0;points=[];" vertex="1" connectable="0" parent="YjTK8mHUQti5EuOpvLz2-4">
          <mxGeometry x="0.2107" y="1" relative="1" as="geometry">
            <mxPoint x="1" y="8.37" as="offset" />
          </mxGeometry>
        </mxCell>
        <mxCell id="YjTK8mHUQti5EuOpvLz2-6" value="" style="endArrow=none;html=1;exitX=0.25;exitY=0;exitDx=0;exitDy=0;" edge="1" source="YjTK8mHUQti5EuOpvLz2-1" parent="1">
          <mxGeometry width="50" height="50" relative="1" as="geometry">
            <mxPoint x="1790" y="240" as="sourcePoint" />
            <mxPoint x="1740" as="targetPoint" />
          </mxGeometry>
        </mxCell>
        <mxCell id="YjTK8mHUQti5EuOpvLz2-7" value="8" style="edgeLabel;html=1;align=center;verticalAlign=middle;resizable=0;points=[];" vertex="1" connectable="0" parent="YjTK8mHUQti5EuOpvLz2-6">
          <mxGeometry x="0.1959" relative="1" as="geometry">
            <mxPoint y="7.91" as="offset" />
          </mxGeometry>
        </mxCell>
        <mxCell id="YjTK8mHUQti5EuOpvLz2-8" value="x(3)" style="text;html=1;align=center;verticalAlign=middle;resizable=0;points=[];autosize=1;" vertex="1" parent="1">
          <mxGeometry x="1720" y="-20" width="40" height="20" as="geometry" />
        </mxCell>
        <mxCell id="YjTK8mHUQti5EuOpvLz2-9" value="x(2)" style="text;html=1;align=center;verticalAlign=middle;resizable=0;points=[];autosize=1;" vertex="1" parent="1">
          <mxGeometry x="1750" y="-20" width="40" height="20" as="geometry" />
        </mxCell>
        <mxCell id="YjTK8mHUQti5EuOpvLz2-10" value="x(1)" style="text;html=1;align=center;verticalAlign=middle;resizable=0;points=[];autosize=1;" vertex="1" parent="1">
          <mxGeometry x="1780" y="-20" width="40" height="20" as="geometry" />
        </mxCell>
        <mxCell id="YjTK8mHUQti5EuOpvLz2-11" value="FA1" style="rounded=0;whiteSpace=wrap;html=1;fontSize=20;" vertex="1" parent="1">
          <mxGeometry x="1560" y="80" width="120" height="60" as="geometry" />
        </mxCell>
        <mxCell id="YjTK8mHUQti5EuOpvLz2-12" value="" style="endArrow=none;html=1;exitX=0.75;exitY=0;exitDx=0;exitDy=0;" edge="1" source="YjTK8mHUQti5EuOpvLz2-11" parent="1">
          <mxGeometry width="50" height="50" relative="1" as="geometry">
            <mxPoint x="1680" y="50" as="sourcePoint" />
            <mxPoint x="1650" as="targetPoint" />
          </mxGeometry>
        </mxCell>
        <mxCell id="YjTK8mHUQti5EuOpvLz2-13" value="8" style="edgeLabel;html=1;align=center;verticalAlign=middle;resizable=0;points=[];" vertex="1" connectable="0" parent="YjTK8mHUQti5EuOpvLz2-12">
          <mxGeometry x="0.2226" y="-1" relative="1" as="geometry">
            <mxPoint x="-1" y="8.84" as="offset" />
          </mxGeometry>
        </mxCell>
        <mxCell id="YjTK8mHUQti5EuOpvLz2-14" value="" style="endArrow=none;html=1;exitX=0.5;exitY=0;exitDx=0;exitDy=0;" edge="1" source="YjTK8mHUQti5EuOpvLz2-11" parent="1">
          <mxGeometry width="50" height="50" relative="1" as="geometry">
            <mxPoint x="1660" y="20" as="sourcePoint" />
            <mxPoint x="1620" as="targetPoint" />
          </mxGeometry>
        </mxCell>
        <mxCell id="YjTK8mHUQti5EuOpvLz2-15" value="8" style="edgeLabel;html=1;align=center;verticalAlign=middle;resizable=0;points=[];" vertex="1" connectable="0" parent="YjTK8mHUQti5EuOpvLz2-14">
          <mxGeometry x="0.2107" y="1" relative="1" as="geometry">
            <mxPoint x="1" y="8.37" as="offset" />
          </mxGeometry>
        </mxCell>
        <mxCell id="YjTK8mHUQti5EuOpvLz2-16" value="" style="endArrow=none;html=1;exitX=0.25;exitY=0;exitDx=0;exitDy=0;" edge="1" source="YjTK8mHUQti5EuOpvLz2-11" parent="1">
          <mxGeometry width="50" height="50" relative="1" as="geometry">
            <mxPoint x="1640" y="240" as="sourcePoint" />
            <mxPoint x="1590" as="targetPoint" />
          </mxGeometry>
        </mxCell>
        <mxCell id="YjTK8mHUQti5EuOpvLz2-17" value="8" style="edgeLabel;html=1;align=center;verticalAlign=middle;resizable=0;points=[];" vertex="1" connectable="0" parent="YjTK8mHUQti5EuOpvLz2-16">
          <mxGeometry x="0.1959" relative="1" as="geometry">
            <mxPoint y="7.91" as="offset" />
          </mxGeometry>
        </mxCell>
        <mxCell id="YjTK8mHUQti5EuOpvLz2-18" value="x(4)" style="text;html=1;align=center;verticalAlign=middle;resizable=0;points=[];autosize=1;" vertex="1" parent="1">
          <mxGeometry x="1630" y="-20" width="40" height="20" as="geometry" />
        </mxCell>
        <mxCell id="YjTK8mHUQti5EuOpvLz2-19" value="x(5)" style="text;html=1;align=center;verticalAlign=middle;resizable=0;points=[];autosize=1;" vertex="1" parent="1">
          <mxGeometry x="1600" y="-20" width="40" height="20" as="geometry" />
        </mxCell>
        <mxCell id="YjTK8mHUQti5EuOpvLz2-20" value="x(6)" style="text;html=1;align=center;verticalAlign=middle;resizable=0;points=[];autosize=1;" vertex="1" parent="1">
          <mxGeometry x="1570" y="-20" width="40" height="20" as="geometry" />
        </mxCell>
      </root>
    </mxGraphModel>
  </diagram>
</mxfile>
